<svg width="1024" height="1024" viewBox="0 0 1024 1024" fill="none" xmlns="http://www.w3.org/2000/svg">
<rect width="1024" height="1024" fill="white"/>
<circle cx="512" cy="512" r="407" fill="#5AAEC4"/>
<circle cx="512" cy="512" r="392" stroke="white" stroke-width="30" stroke-dasharray="23 23"/>
<path d="M383.292 368.677C390.432 363.83 398.256 360.043 406.764 357.317C415.271 354.439 423.247 353 430.691 353C441.022 353 449.605 355.045 456.442 359.135C463.278 363.073 470.114 370.419 476.951 381.174L649 656.323C641.86 661.17 634.036 664.957 625.528 667.683C617.173 670.561 609.197 672 601.601 672C591.27 672 582.611 669.955 575.623 665.865C568.634 661.776 561.646 654.278 554.658 643.372L383.292 368.677ZM569.47 357.317C573.268 356.408 577.674 355.726 582.687 355.272C587.852 354.818 593.549 354.59 599.778 354.59C606.766 354.59 613.679 355.196 620.515 356.408C627.503 357.62 633.352 359.059 638.062 360.725L639.885 364.36L542.808 523.86L513.184 557.033L447.326 667.683C443.528 668.592 439.047 669.274 433.881 669.728C428.716 670.182 423.019 670.41 416.79 670.41C409.802 670.41 402.814 669.804 395.826 668.592C388.989 667.38 382.988 665.941 377.823 664.275L376 660.185L482.42 487.28L512.044 454.335L569.47 357.317Z" fill="white"/>
</svg>
